<?xml version="1.0" encoding="UTF-8"?>
<svg id="Layer_2" data-name="Layer 2" xmlns="http://www.w3.org/2000/svg" viewBox="0 0 1790.82 547.33">
  <defs>
    <style>
      .cls-1 {
        fill: #091223;
      }
    </style>
  </defs>
  <g id="Layer_1-2" data-name="Layer 1">
    <g>
      <path class="cls-1" d="M907.96,209.52l-22.74,129.13c-10.29,60.59-40.2,87.52-97.42,87.52-30.29,0-52.41-10.4-62.66-30.91-16.95,21.42-41.69,30.91-70.15,30.91-45.29,0-74.88-22.34-76.42-63.65-.27-7.34.35-15.3,1.88-23.56l22.73-129.44h30.6l-23.54,132.19c-1.28,6.73-1.67,12.55-1.47,18.05.99,26.62,17.98,39.17,45.83,39.17,32.44,0,55.62-18.36,63.49-61.81l22.49-127.6h29.99l-23.24,132.19c-1.28,6.73-1.66,12.85-1.46,18.36.98,26.32,17.36,38.86,45.2,38.86,35.8,0,56.54-18.36,63.87-59.98l22.73-129.44h30.29Z"/>
      <path class="cls-1" d="M1091.83,331.92c.09,2.45.18,4.9-.02,7.65l-133.11,24.79c4.53,22.95,21.21,35.5,51.81,35.5,20.2,0,38.3-6.73,49.49-18.67l13.33,21.11c-15.35,14.99-38.92,23.26-64.31,23.26-48.04,0-78.75-27.54-80.34-70.38-2.01-54.16,34.41-95.17,87.65-95.17,43.15,0,73.75,24.79,75.5,71.91ZM957.6,342.93l106.67-19.89c-3.06-24.79-21.63-38.56-47.95-38.56-33.35,0-56.05,23.26-58.72,58.45Z"/>
    </g>
    <g>
      <path class="cls-1" d="M1123.48,426.16l37.68-216.84,67.61.15c25.12.1,43.98,5.21,56.59,15.34,12.61,10.13,18.32,24.38,17.13,42.74-1.39,21.94-14.05,37.98-37.98,48.1,8.64,2.98,15.34,8.56,20.11,16.75,4.77,8.19,6.8,17.85,6.11,28.97-1.39,20.45-9.41,36.36-24.05,47.73-14.65,11.37-34.62,17.05-59.94,17.05h-83.25ZM1183.65,331.74l-10.28,58.53,34.4.15c10.72,0,19.71-2.66,26.96-7.97,7.25-5.31,11.57-12.48,12.96-21.52,1.39-8.94.17-15.91-3.65-20.92-3.82-5.01-10.25-7.72-19.29-8.12l-41.1-.15ZM1189.01,300.17l29.64.3c11.02-.2,20.03-2.78,27.03-7.74,7-4.96,11.19-11.86,12.58-20.7,2.48-17.47-6.7-26.26-27.55-26.36l-32.17-.15-9.53,54.66Z"/>
      <path class="cls-1" d="M1421.49,305.39c-5.76-.99-10.48-1.49-14.15-1.49-14.99-.4-26.86,5.21-35.59,16.83l-18.62,105.44h-42l28-161.14,39.46-.15-3.87,19.66c10.13-15.19,22.64-22.79,37.53-22.79,4.17,0,9.03.7,14.6,2.08l-5.36,41.55Z"/>
      <path class="cls-1" d="M1464.97,426.16h-42.29l28-161.14h42.29l-28,161.14ZM1455.59,224.07c-.2-6.65,1.98-12.16,6.55-16.53,4.56-4.37,10.08-6.55,16.53-6.55,6.35-.2,11.86,1.74,16.53,5.81,4.67,4.07,7.1,9.33,7.3,15.79.2,6.16-1.86,11.52-6.18,16.08-4.32,4.57-9.96,6.95-16.9,7.15-6.26.2-11.74-1.69-16.46-5.66-4.72-3.97-7.17-9.33-7.37-16.08Z"/>
      <path class="cls-1" d="M1577.11,429.14c-14.1-.1-26.58-3.55-37.46-10.35-10.87-6.8-18.99-16.13-24.35-28-5.36-11.86-7.45-24.94-6.25-39.24l.45-5.96c1.49-15.69,6.05-30.08,13.7-43.19,7.64-13.11,17.47-23.21,29.49-30.31,12.01-7.1,25.32-10.45,39.91-10.05,20.75.4,36.46,8.03,47.13,22.9,10.67,14.87,14.72,33.68,12.14,56.45l-2.38,18.35h-98.74c-.4,10.42,2.13,18.76,7.6,25.02,5.46,6.25,12.9,9.48,22.34,9.68,15.29.4,28.69-5.56,40.21-17.87l19.21,23.83c-6.06,9.14-14.79,16.26-26.21,21.37-11.42,5.11-23.68,7.57-36.79,7.37ZM1590.52,296.75c-7.74-.2-14.62,2.23-20.63,7.3-6.01,5.06-11.39,13.85-16.16,26.36h57.78l.89-3.87c.6-3.97.64-7.74.15-11.32-.99-5.76-3.43-10.25-7.3-13.48-3.87-3.22-8.79-4.89-14.74-4.99Z"/>
      <path class="cls-1" d="M1673.32,426.16l22.49-129.71h-23.23l5.51-31.42,23.23-.15,2.08-16.08c2.58-17.18,9.58-30.65,21-40.43,11.42-9.78,25.96-14.57,43.64-14.37,6.05.2,13.65,1.24,22.79,3.11l-3.72,33.37c-4.77-1.19-8.89-1.79-12.36-1.79-7.45-.1-13.83,1.8-19.14,5.68-5.31,3.89-8.62,9.72-9.9,17.5l-2.23,13.16h31.13l-5.51,31.42h-30.98l-22.49,129.71h-42.29Z"/>
    </g>
    <g>
      <path class="cls-1" d="M460.17,233.49v88.9c0,67.6-43.26,105.12-116.27,105.12-31.1,0-55.43-8.11-73.35-22.31-17.58,14.2-42.25,22.31-73.35,22.31-72.67,0-115.93-37.52-115.93-105.12v-88.9H0v200.47c0,62.61,50.76,113.37,113.37,113.37h262.82c62.61,0,113.37-50.76,113.37-113.37v-200.47h-29.39Z"/>
      <path class="cls-1" d="M81.27,209.45h79.77v110.58c0,28.39,10.82,42.93,34.81,42.93s34.81-14.53,34.81-42.93v-110.58h79.77v110.58c0,28.39,10.82,42.93,35.15,42.93s34.81-14.53,34.81-42.93v-110.58h109.16v-38.32c0-53.71-37.36-98.7-87.5-110.4-37.7,55.25-135.17,49.99-135.17,49.99,38.27-3.11,104.87-34.14,104.87-69.65,0-29.49-33.51-41.07-33.51-41.07,0,63.41-193.05,57.76-193.05,57.76h-31.83C50.76,57.76,0,108.52,0,171.13v38.32h81.27Z"/>
    </g>
  </g>
</svg>