<?xml version="1.0" encoding="UTF-8"?>
<svg id="Layer_2" data-name="Layer 2" xmlns="http://www.w3.org/2000/svg" viewBox="0 0 30 30">
  <defs>
    <style>
      .cls-1 {
        fill: #091223;
      }

      @media (prefers-color-scheme: dark) {
        .cls-1 {
          fill: #f8fafc;
        }
      }
    </style>
  </defs>
  <g id="Layer_1-2" data-name="Layer 1">
    <g>
      <path class="cls-1" d="M4.98,9.3h4.89v6.78c0,1.74.66,2.63,2.13,2.63s2.13-.89,2.13-2.63v-6.78h4.89v6.78c0,1.74.66,2.63,2.15,2.63s2.13-.89,2.13-2.63v-6.78h6.69v-2.35c0-3.84-3.11-6.95-6.95-6.95H6.95C3.11,0,0,3.11,0,6.95v2.35h4.98Z"/>
      <path class="cls-1" d="M28.2,10.77v5.45c0,4.14-2.65,6.44-7.12,6.44-1.91,0-3.4-.5-4.49-1.37-1.08.87-2.59,1.37-4.49,1.37-4.45,0-7.1-2.3-7.1-6.44v-5.45H0v12.28c0,3.84,3.11,6.95,6.95,6.95h16.11c3.84,0,6.95-3.11,6.95-6.95v-12.28h-1.8Z"/>
    </g>
  </g>
</svg>
