<?xml version="1.0" encoding="UTF-8"?>
<svg id="Layer_2" data-name="Layer 2" xmlns="http://www.w3.org/2000/svg" viewBox="0 0 1793.02 489.57">
  <defs>
    <style>
      .cls-1 {
        fill: #091223;
      }
    </style>
  </defs>
  <g id="Layer_1-2" data-name="Layer 1">
    <g>
      <path class="cls-1" d="M907.96,155.55l-22.74,129.13c-10.29,60.59-40.2,87.52-97.42,87.52-30.29,0-52.41-10.4-62.66-30.91-16.95,21.42-41.69,30.91-70.15,30.91-45.29,0-74.88-22.34-76.42-63.65-.27-7.34.35-15.3,1.88-23.56l22.73-129.44h30.6l-23.54,132.19c-1.28,6.73-1.67,12.55-1.47,18.05.99,26.62,17.98,39.17,45.83,39.17,32.44,0,55.62-18.36,63.49-61.81l22.49-127.6h29.99l-23.24,132.19c-1.28,6.73-1.66,12.85-1.46,18.36.98,26.32,17.36,38.86,45.2,38.86,35.8,0,56.54-18.36,63.87-59.98l22.73-129.44h30.29Z"/>
      <path class="cls-1" d="M1091.83,277.95c.09,2.45.18,4.9-.02,7.65l-133.11,24.79c4.53,22.95,21.21,35.5,51.81,35.5,20.2,0,38.3-6.73,49.49-18.67l13.33,21.11c-15.35,14.99-38.92,23.26-64.31,23.26-48.04,0-78.75-27.54-80.34-70.38-2.01-54.16,34.41-95.17,87.65-95.17,43.15,0,73.75,24.79,75.5,71.91ZM957.6,288.97l106.67-19.89c-3.06-24.79-21.63-38.56-47.95-38.56-33.35,0-56.05,23.26-58.72,58.45Z"/>
    </g>
    <g>
      <path class="cls-1" d="M1123.5,369.75l37.8-217.55,67.83.15c25.2.1,44.13,5.23,56.78,15.39,12.65,10.16,18.38,24.46,17.18,42.88-1.4,22.01-14.1,38.1-38.1,48.26,8.67,2.99,15.39,8.59,20.17,16.81,4.78,8.22,6.82,17.91,6.13,29.06-1.4,20.52-9.44,36.48-24.13,47.89-14.69,11.41-34.74,17.11-60.14,17.11h-83.52ZM1183.86,275.02l-10.31,58.72,34.51.15c10.76,0,19.77-2.66,27.04-7.99,7.27-5.33,11.6-12.52,13-21.59,1.39-8.96.17-15.96-3.66-20.99-3.83-5.03-10.29-7.74-19.35-8.14l-41.24-.15ZM1189.24,243.35l29.73.3c11.06-.2,20.1-2.79,27.12-7.77,7.02-4.98,11.23-11.9,12.62-20.77,2.49-17.53-6.72-26.35-27.64-26.45l-32.27-.15-9.56,54.83Z"/>
      <path class="cls-1" d="M1422.48,248.57c-5.78-1-10.51-1.49-14.19-1.49-15.04-.4-26.95,5.23-35.71,16.88l-18.68,105.79h-42.13l28.09-161.67,39.59-.15-3.88,19.72c10.16-15.24,22.71-22.86,37.65-22.86,4.18,0,9.06.7,14.64,2.09l-5.38,41.69Z"/>
      <path class="cls-1" d="M1466.11,369.75h-42.43l28.09-161.67h42.43l-28.09,161.67ZM1456.69,166.99c-.2-6.67,1.99-12.2,6.57-16.58,4.58-4.38,10.11-6.57,16.58-6.57,6.37-.2,11.9,1.74,16.58,5.83,4.68,4.09,7.12,9.36,7.32,15.84.2,6.18-1.87,11.56-6.2,16.14-4.33,4.58-9.99,6.97-16.96,7.17-6.28.2-11.78-1.69-16.51-5.68-4.73-3.98-7.2-9.36-7.4-16.14Z"/>
      <path class="cls-1" d="M1578.61,372.74c-14.15-.1-26.67-3.56-37.58-10.38-10.91-6.82-19.05-16.19-24.43-28.09-5.38-11.9-7.47-25.03-6.28-39.37l.45-5.98c1.49-15.74,6.07-30.18,13.75-43.33,7.67-13.15,17.53-23.28,29.58-30.41,12.05-7.12,25.4-10.48,40.04-10.09,20.82.4,36.58,8.06,47.29,22.97,10.71,14.92,14.77,33.79,12.18,56.64l-2.39,18.41h-99.06c-.4,10.46,2.14,18.83,7.62,25.1,5.48,6.28,12.95,9.51,22.41,9.71,15.34.4,28.79-5.58,40.34-17.93l19.27,23.91c-6.08,9.17-14.84,16.31-26.3,21.44-11.46,5.13-23.76,7.59-36.91,7.4ZM1592.06,239.91c-7.77-.2-14.67,2.24-20.69,7.32-6.03,5.08-11.43,13.9-16.21,26.45h57.97l.9-3.88c.6-3.98.65-7.77.15-11.36-1-5.78-3.44-10.28-7.32-13.52-3.88-3.24-8.82-4.9-14.79-5Z"/>
      <path class="cls-1" d="M1675.14,369.75l22.56-130.14h-23.31l5.53-31.53,23.31-.15,2.09-16.14c2.59-17.23,9.61-30.75,21.07-40.57,11.45-9.81,26.05-14.62,43.78-14.42,6.07.2,13.69,1.24,22.86,3.12l-3.74,33.48c-4.78-1.2-8.92-1.79-12.4-1.79-7.47-.1-13.87,1.8-19.2,5.7-5.33,3.9-8.64,9.75-9.94,17.55l-2.24,13.2h31.23l-5.53,31.53h-31.08l-22.56,130.14h-42.43Z"/>
    </g>
    <g>
      <path class="cls-1" d="M81.28,151.69h79.77v110.58c0,28.39,10.82,42.93,34.81,42.93s34.81-14.53,34.81-42.93v-110.58h79.77v110.58c0,28.39,10.82,42.93,35.15,42.93s34.81-14.53,34.81-42.93v-110.58h109.16v-38.31c0-62.62-50.76-113.38-113.37-113.38H113.38C50.76,0,0,50.76,0,113.38v38.31h81.28Z"/>
      <path class="cls-1" d="M460.17,175.73v88.9c0,67.6-43.26,105.12-116.27,105.12-31.1,0-55.43-8.11-73.35-22.31-17.58,14.2-42.25,22.31-73.35,22.31-72.67,0-115.93-37.52-115.93-105.12v-88.9H0v200.47c0,62.61,50.76,113.37,113.38,113.37h262.82c62.61,0,113.37-50.76,113.37-113.37v-200.47h-29.4Z"/>
    </g>
  </g>
</svg>